<?xml version="1.0" encoding="UTF-8"?>
<svg version="1.1" xmlns="http://www.w3.org/2000/svg" width="155" height="156">
<path d="M0 0 C0.66 0 1.32 0 2 0 C3.27861615 2.55723229 3.11336609 4.36737102 3.09765625 7.2265625 C3.09443359 8.2578125 3.09121094 9.2890625 3.08789062 10.3515625 C3.07532227 11.97191406 3.07532227 11.97191406 3.0625 13.625 C3.05798828 14.71296875 3.05347656 15.8009375 3.04882812 16.921875 C3.0370179 19.61460662 3.01908205 22.30731009 3 25 C8.28 25 13.56 25 19 25 C19 22.36 19 19.72 19 17 C19.66 17.33 20.32 17.66 21 18 C21 26.58 21 35.16 21 44 C29.13748444 43.96044452 29.13748444 43.96044452 37.27490234 43.90991211 C38.28504395 43.90741455 39.29518555 43.90491699 40.3359375 43.90234375 C41.37282715 43.89710693 42.4097168 43.89187012 43.47802734 43.88647461 C46 44 46 44 48 45 C48 45.66 48 46.32 48 47 C45.36 47 42.72 47 40 47 C40 52.28 40 57.56 40 63 C46.27 63 52.54 63 59 63 C59.495 64.485 59.495 64.485 60 66 C47.46 66.33 34.92 66.66 22 67 C22.01160156 72.10210937 22.02320312 77.20421875 22.03515625 82.4609375 C22.04026398 85.68750127 22.04507783 88.91406007 22.04882812 92.140625 C22.05481279 97.26530997 22.06190309 102.38997713 22.07543945 107.51464844 C22.08628117 111.64487529 22.09227957 115.77508305 22.09487724 119.90532303 C22.09672917 121.4834282 22.10034535 123.06153229 22.10573006 124.63962936 C22.11295752 126.84489984 22.11399022 129.05009074 22.11352539 131.25537109 C22.115746 132.51223724 22.11796661 133.76910339 22.12025452 135.0640564 C22 138 22 138 21 140 C20.01 140 19.02 140 18 140 C16.77467424 137.54934849 16.87308842 135.95426623 16.87060547 133.21484375 C16.86745331 132.2204126 16.86430115 131.22598145 16.86105347 130.20141602 C16.8630777 129.12432373 16.86510193 128.04723145 16.8671875 126.9375 C16.86623077 125.835271 16.86527405 124.73304199 16.86428833 123.59741211 C16.86360694 121.26383406 16.86545837 118.93025411 16.86962891 116.59667969 C16.8749777 113.01493085 16.8696825 109.43330742 16.86328125 105.8515625 C16.86394204 103.58854139 16.86522322 101.32552036 16.8671875 99.0625 C16.86516327 97.98540771 16.86313904 96.90831543 16.86105347 95.79858398 C16.86578171 94.30693726 16.86578171 94.30693726 16.87060547 92.78515625 C16.87140106 91.90738525 16.87219666 91.02961426 16.87301636 90.12524414 C17 88 17 88 18 86 C13.05 86 8.1 86 3 86 C3 96.89 3 107.78 3 119 C1.02 119.495 1.02 119.495 -1 120 C-1.33 102.51 -1.66 85.02 -2 67 C-10.25 66.67 -18.5 66.34 -27 66 C-27 65.34 -27 64.68 -27 64 C-25.02 64 -23.04 64 -21 64 C-20.67 58.72 -20.34 53.44 -20 48 C-31.385 47.505 -31.385 47.505 -43 47 C-43 46.34 -43 45.68 -43 45 C-22.705 44.01 -22.705 44.01 -2 43 C-1.93941406 39.97972656 -1.87882812 36.95945312 -1.81640625 33.84765625 C-1.7546683 30.93527592 -1.69125932 28.02293647 -1.62768555 25.1105957 C-1.58426759 23.08035896 -1.54259774 21.05008408 -1.50268555 19.01977539 C-1.44514854 16.10811849 -1.38140722 13.19665486 -1.31640625 10.28515625 C-1.29133751 8.91485008 -1.29133751 8.91485008 -1.26576233 7.51686096 C-1.11387171 1.11387171 -1.11387171 1.11387171 0 0 Z M9.4375 47.5 C5.7559375 47.7475 5.7559375 47.7475 2 48 C2 53.28 2 58.56 2 64 C7.28 64 12.56 64 18 64 C18 58.39 18 52.78 18 47 C15.14967363 47 12.28233455 47.30811359 9.4375 47.5 Z " fill="#8D7F5D" transform="translate(66,12)"/>
<path d="M0 0 C0.66 0.33 1.32 0.66 2 1 C2 9.58 2 18.16 2 27 C10.13748444 26.96044452 10.13748444 26.96044452 18.27490234 26.90991211 C19.28504395 26.90741455 20.29518555 26.90491699 21.3359375 26.90234375 C22.89127197 26.89448853 22.89127197 26.89448853 24.47802734 26.88647461 C27 27 27 27 29 28 C29 28.66 29 29.32 29 30 C26.36 30 23.72 30 21 30 C21 35.94 21 41.88 21 48 C8.47826087 48.17391304 8.47826087 48.17391304 3 47 C1.4375 45.25 1.4375 45.25 1 43 C1.375 40.4375 1.375 40.4375 2 38 C2 37.01 2 36.02 2 35 C2.99 35 3.98 35 5 35 C5.33 35.66 5.66 36.32 6 37 C6.99 36.505 6.99 36.505 8 36 C7.979375 35.195625 7.95875 34.39125 7.9375 33.5625 C8 31 8 31 9 30 C7.948125 29.855625 6.89625 29.71125 5.8125 29.5625 C3.76939621 29.26105846 1.72566064 28.93575301 -0.28515625 28.46484375 C-3.64807695 27.88903431 -6.84052583 27.94293767 -10.25 28 C-12.49969015 28.03733926 -14.75049325 28.04711009 -17 28 C-17.33 27.67 -17.66 27.34 -18 27 C-17.93527574 24.15213242 -17.80855168 21.34046224 -17.625 18.5 C-17.58117187 17.70207031 -17.53734375 16.90414062 -17.4921875 16.08203125 C-17.1282917 10.1282917 -17.1282917 10.1282917 -16 9 C-13.30345146 8.92680379 -10.63308542 8.90757463 -7.9375 8.9375 C-6.79958008 8.94426758 -6.79958008 8.94426758 -5.63867188 8.95117188 C-3.75908129 8.9629932 -1.87953101 8.98092922 0 9 C0 6.03 0 3.06 0 0 Z " fill="#B19D6F" transform="translate(85,29)"/>
<path d="M0 0 C1.10601562 -0.00580078 1.10601562 -0.00580078 2.234375 -0.01171875 C7.7466804 -0.0016598 7.7466804 -0.0016598 10 1.125 C10 3.765 10 6.405 10 9.125 C9.34 9.125 8.68 9.125 8 9.125 C8.04125 10.40375 8.0825 11.6825 8.125 13 C8.1953125 15.1796875 8.1953125 15.1796875 8 17.125 C6 19.125 6 19.125 3.72265625 19.35546875 C2.84480469 19.34128906 1.96695313 19.32710937 1.0625 19.3125 C0.18722656 19.30605469 -0.68804687 19.29960938 -1.58984375 19.29296875 C-4 19.125 -4 19.125 -7 18.125 C-7.33 16.475 -7.66 14.825 -8 13.125 C-8.33 26.655 -8.66 40.185 -9 54.125 C-9.33 54.125 -9.66 54.125 -10 54.125 C-10 36.635 -10 19.145 -10 1.125 C-6.84150315 -0.45424842 -3.4634872 -0.01816514 0 0 Z " fill="#E2CC97" transform="translate(76,76.875)"/>
<path d="M0 0 C0.02734857 2.02075566 0.0465517 4.04162221 0.0625 6.0625 C0.07410156 7.18785156 0.08570312 8.31320313 0.09765625 9.47265625 C-0.0014585 13.05268113 -0.42846687 16.46729524 -1 20 C-3.81256281 20.02684312 -6.62487241 20.04676188 -9.4375 20.0625 C-10.23994141 20.07087891 -11.04238281 20.07925781 -11.86914062 20.08789062 C-13.91295221 20.0965143 -15.95683902 20.0522815 -18 20 C-18.33 19.67 -18.66 19.34 -19 19 C-18.93527574 16.15213242 -18.80855168 13.34046224 -18.625 10.5 C-18.58117187 9.70207031 -18.53734375 8.90414062 -18.4921875 8.08203125 C-18.1282917 2.1282917 -18.1282917 2.1282917 -17 1 C-14.32838667 0.76271855 -11.67686629 0.57778251 -9 0.4375 C-7.87464844 0.37272461 -7.87464844 0.37272461 -6.7265625 0.30664062 C-1.33358135 0 -1.33358135 0 0 0 Z " fill="#DEC68F" transform="translate(86,37)"/>
<path d="M0 0 C2.10353495 -0.0810206 4.20795952 -0.13919907 6.3125 -0.1875 C7.48425781 -0.22230469 8.65601563 -0.25710937 9.86328125 -0.29296875 C13 0 13 0 14.85546875 1.32421875 C17.53055254 5.24097966 17.23800043 9.45053023 17 14 C16.5 16.5 16.5 16.5 16 18 C10.94997778 19.03590199 6.12583611 19.10251672 1 19 C-1.13593133 14.0606588 -1.52687362 10.23499526 0 5 C3.0625 3.125 3.0625 3.125 6 2 C3.03 1.505 3.03 1.505 0 1 C0 0.67 0 0.34 0 0 Z " fill="#C6AD78" transform="translate(49,58)"/>
<path d="M0 0 C0.66 0 1.32 0 2 0 C2 21.45 2 42.9 2 65 C1.67 65 1.34 65 1 65 C-0.1989172 59.3663337 -0.1273081 53.86120261 -0.09765625 48.1328125 C-0.0962413 47.09808807 -0.09482635 46.06336365 -0.09336853 44.99728394 C-0.08779039 41.70649268 -0.07524188 38.41577054 -0.0625 35.125 C-0.05748218 32.88802182 -0.05291976 30.65104257 -0.04882812 28.4140625 C-0.03782811 22.94268188 -0.02057852 17.47135264 0 12 C-4.95 12 -9.9 12 -15 12 C-15 22.89 -15 33.78 -15 45 C-15.66 45 -16.32 45 -17 45 C-17 30.81 -17 16.62 -17 2 C-15 4 -15 4 -14.875 6.625 C-14.91625 7.40875 -14.9575 8.1925 -15 9 C-12.85423363 9.02685938 -10.70837355 9.04633088 -8.5625 9.0625 C-6.77005859 9.07990234 -6.77005859 9.07990234 -4.94140625 9.09765625 C-2.11126659 9.33901792 -2.11126659 9.33901792 -1 8 C-0.76924918 6.65252916 -0.58846937 5.29622435 -0.4375 3.9375 C-0.293125 2.638125 -0.14875 1.33875 0 0 Z " fill="#B1A37A" transform="translate(84,86)"/>
<path d="M0 0 C6.27 0 12.54 0 19 0 C19.495 1.485 19.495 1.485 20 3 C1.19 3.495 1.19 3.495 -18 4 C-17.98839844 9.10210937 -17.97679688 14.20421875 -17.96484375 19.4609375 C-17.95973602 22.68750127 -17.95492217 25.91406007 -17.95117188 29.140625 C-17.94518721 34.26530997 -17.93809691 39.38997713 -17.92456055 44.51464844 C-17.91371883 48.64487529 -17.90772043 52.77508305 -17.90512276 56.90532303 C-17.90327083 58.4834282 -17.89965465 60.06153229 -17.89426994 61.63962936 C-17.88704248 63.84489984 -17.88600978 66.05009074 -17.88647461 68.25537109 C-17.884254 69.51223724 -17.88203339 70.76910339 -17.87974548 72.0640564 C-18 75 -18 75 -19 77 C-19.99 77 -20.98 77 -22 77 C-23.23080509 74.53838983 -23.12043977 72.93503007 -23.11352539 70.18310547 C-23.11344986 69.18221893 -23.11337433 68.1813324 -23.11329651 67.15011597 C-23.10813522 66.06674957 -23.10297394 64.98338318 -23.09765625 63.8671875 C-23.0962413 62.76021515 -23.09482635 61.6532428 -23.09336853 60.51272583 C-23.08775772 56.96679007 -23.07520337 53.42091677 -23.0625 49.875 C-23.05748639 47.47526133 -23.05292325 45.07552167 -23.04882812 42.67578125 C-23.03778478 36.78383275 -23.0210361 30.89192084 -23 25 C-22.67 25 -22.34 25 -22 25 C-21.67 39.85 -21.34 54.7 -21 70 C-20.93941406 65.17503906 -20.87882812 60.35007812 -20.81640625 55.37890625 C-20.77593192 52.33006875 -20.73516896 49.28124064 -20.69335938 46.23242188 C-20.62696226 41.38862212 -20.56165938 36.5448243 -20.50268555 31.70092773 C-20.45509607 27.79757638 -20.4027555 23.89431551 -20.34705925 19.9910717 C-20.32661106 18.49868955 -20.30790213 17.00628257 -20.29092598 15.51385689 C-20.2669362 13.43045151 -20.23687481 11.3472186 -20.20532227 9.26391602 C-20.18977798 8.07588882 -20.1742337 6.88786163 -20.15821838 5.66383362 C-20 3 -20 3 -19 2 C-17.58429877 1.91348389 -16.164405 1.89295096 -14.74609375 1.90234375 C-13.46508789 1.90717773 -13.46508789 1.90717773 -12.15820312 1.91210938 C-11.26037109 1.92048828 -10.36253906 1.92886719 -9.4375 1.9375 C-8.53580078 1.94201172 -7.63410156 1.94652344 -6.70507812 1.95117188 C-4.46998686 1.96299775 -2.23502563 1.9794778 0 2 C0 1.34 0 0.68 0 0 Z " fill="#5C533C" transform="translate(106,75)"/>
<path d="M0 0 C0.66 0 1.32 0 2 0 C3.27861615 2.55723229 3.11336609 4.36737102 3.09765625 7.2265625 C3.09443359 8.2578125 3.09121094 9.2890625 3.08789062 10.3515625 C3.07532227 11.97191406 3.07532227 11.97191406 3.0625 13.625 C3.05798828 14.71296875 3.05347656 15.8009375 3.04882812 16.921875 C3.0370179 19.61460662 3.01908205 22.30731009 3 25 C8.28 25 13.56 25 19 25 C19 25.33 19 25.66 19 26 C13.72 26.33 8.44 26.66 3 27 C2.67 30.96 2.34 34.92 2 39 C1.67 39 1.34 39 1 39 C0.67 40.98 0.34 42.96 0 45 C-7.92 45 -15.84 45 -24 45 C-24 45.66 -24 46.32 -24 47 C-30.27 47 -36.54 47 -43 47 C-43 46.34 -43 45.68 -43 45 C-22.705 44.01 -22.705 44.01 -2 43 C-1.93941406 39.97972656 -1.87882812 36.95945312 -1.81640625 33.84765625 C-1.7546683 30.93527592 -1.69125932 28.02293647 -1.62768555 25.1105957 C-1.58426759 23.08035896 -1.54259774 21.05008408 -1.50268555 19.01977539 C-1.44514854 16.10811849 -1.38140722 13.19665486 -1.31640625 10.28515625 C-1.29133751 8.91485008 -1.29133751 8.91485008 -1.26576233 7.51686096 C-1.11387171 1.11387171 -1.11387171 1.11387171 0 0 Z " fill="#938361" transform="translate(66,12)"/>
<path d="M0 0 C6.27 0 12.54 0 19 0 C19.495 1.485 19.495 1.485 20 3 C1.19 3.495 1.19 3.495 -18 4 C-18.33 6.31 -18.66 8.62 -19 11 C-19.33 11 -19.66 11 -20 11 C-20.09765625 4.84765625 -20.09765625 4.84765625 -20 3 C-19 2 -19 2 -17.14233398 1.88647461 C-15.95619507 1.89432983 -15.95619507 1.89432983 -14.74609375 1.90234375 C-13.46508789 1.90717773 -13.46508789 1.90717773 -12.15820312 1.91210938 C-11.26037109 1.92048828 -10.36253906 1.92886719 -9.4375 1.9375 C-8.53580078 1.94201172 -7.63410156 1.94652344 -6.70507812 1.95117188 C-4.46998686 1.96299775 -2.23502563 1.9794778 0 2 C0 1.34 0 0.68 0 0 Z " fill="#74674D" transform="translate(106,75)"/>
<path d="M0 0 C7.59 0 15.18 0 23 0 C23 0.33 23 0.66 23 1 C22.37351562 1.03738281 21.74703125 1.07476562 21.1015625 1.11328125 C20.28429687 1.17902344 19.46703125 1.24476562 18.625 1.3125 C17.40683594 1.39951172 17.40683594 1.39951172 16.1640625 1.48828125 C13.62078662 1.82990528 13.62078662 1.82990528 12 5 C9.875 5.6875 9.875 5.6875 8 6 C6.91543068 11.01613312 7.10238647 14.95092391 8 20 C6.68 19.67 5.36 19.34 4 19 C4.33 13.39 4.66 7.78 5 2 C3.35 2 1.7 2 0 2 C0 1.34 0 0.68 0 0 Z " fill="#B19C71" transform="translate(42,57)"/>
<path d="M0 0 C1.33901367 0.07250977 1.33901367 0.07250977 2.70507812 0.14648438 C4.09823242 0.2305957 4.09823242 0.2305957 5.51953125 0.31640625 C6.93008789 0.3947168 6.93008789 0.3947168 8.36914062 0.47460938 C10.69044626 0.60422543 13.01131534 0.73918806 15.33203125 0.87890625 C15.33203125 1.20890625 15.33203125 1.53890625 15.33203125 1.87890625 C9.39203125 1.87890625 3.45203125 1.87890625 -2.66796875 1.87890625 C-2.33796875 8.14890625 -2.00796875 14.41890625 -1.66796875 20.87890625 C-4.63796875 20.54890625 -7.60796875 20.21890625 -10.66796875 19.87890625 C-10.66796875 19.54890625 -10.66796875 19.21890625 -10.66796875 18.87890625 C-9.01796875 18.54890625 -7.36796875 18.21890625 -5.66796875 17.87890625 C-5.00796875 14.24890625 -4.34796875 10.61890625 -3.66796875 6.87890625 C-4.32796875 6.54890625 -4.98796875 6.21890625 -5.66796875 5.87890625 C-5.66796875 4.55890625 -5.66796875 3.23890625 -5.66796875 1.87890625 C-6.32796875 1.54890625 -6.98796875 1.21890625 -7.66796875 0.87890625 C-4.68926498 -0.11399501 -3.0761399 -0.17633923 0 0 Z " fill="#CAB88E" transform="translate(69.66796875,57.12109375)"/>
<path d="M0 0 C0 0.33 0 0.66 0 1 C-7.59 1 -15.18 1 -23 1 C-23 1.66 -23 2.32 -23 3 C-29.27 3 -35.54 3 -42 3 C-42 2.34 -42 1.68 -42 1 C-28.01935971 -0.31141684 -14.02824319 -0.09936099 0 0 Z " fill="#514B38" transform="translate(65,56)"/>
<path d="M0 0 C2.97 0.33 5.94 0.66 9 1 C8.75 4.375 8.75 4.375 8 8 C5.9375 9.4375 5.9375 9.4375 4 10 C4 9.01 4 8.02 4 7 C3.01 7 2.02 7 1 7 C0.67 4.69 0.34 2.38 0 0 Z " fill="#D4BD8A" transform="translate(86,57)"/>
<path d="M0 0 C0.18451025 13.6332574 0.18451025 13.6332574 -1 20 C-1.33 20 -1.66 20 -2 20 C-2 14.72 -2 9.44 -2 4 C-5.60145641 3.0996359 -6.68771841 2.96174813 -10.0625 3.625 C-11.361875 3.74875 -12.66125 3.8725 -14 4 C-15.74609375 2.5234375 -15.74609375 2.5234375 -17 1 C-14.3541898 0.832959 -11.70835369 0.66634934 -9.0625 0.5 C-8.30775391 0.45230469 -7.55300781 0.40460937 -6.77539062 0.35546875 C-1.11328125 0 -1.11328125 0 0 0 Z " fill="#D0BD8E" transform="translate(86,37)"/>
<path d="M0 0 C0.33 0 0.66 0 1 0 C1 5.94 1 11.88 1 18 C-1.97 17.67 -4.94 17.34 -8 17 C-7.67 16.34 -7.34 15.68 -7 15 C-4.69 15 -2.38 15 0 15 C0 10.05 0 5.1 0 0 Z " fill="#A79568" transform="translate(105,59)"/>
<path d="M0 0 C2 3 2 3 3 6 C0.03 5.67 -2.94 5.34 -6 5 C-6 4.67 -6 4.34 -6 4 C-4.35 3.67 -2.7 3.34 -1 3 C-0.67 2.01 -0.34 1.02 0 0 Z " fill="#D2BD8A" transform="translate(65,72)"/>
</svg>
